<svg width="194" height="58" viewBox="0 0 194 58" fill="none" xmlns="http://www.w3.org/2000/svg">
<rect y="3" width="194" height="52" fill="#E24B33"/>
<path d="M87.2798 27.0043H75.4929V30.8139H87.2798V27.0043ZM91.6232 37.142H104.113V42H108.639V37.142H111.988V33.2429H108.639V15.8182H102.733L91.6232 33.3707V37.142ZM104.164 33.2429H96.4812V33.0384L103.96 21.1875H104.164V33.2429ZM125.75 42.4986C132.066 42.5114 135.837 37.5256 135.837 28.9347C135.837 20.3949 132.04 15.4602 125.75 15.4602C119.461 15.4602 115.676 20.3821 115.664 28.9347C115.664 37.5128 119.435 42.4986 125.75 42.4986ZM125.75 38.4972C122.49 38.4972 120.445 35.2244 120.458 28.9347C120.471 22.696 122.503 19.4105 125.75 19.4105C129.01 19.4105 131.043 22.696 131.056 28.9347C131.056 35.2244 129.023 38.4972 125.75 38.4972ZM154.083 37.0909C154.096 40.1335 156.026 42.7287 159.619 42.7287C163.198 42.7287 165.167 40.1335 165.154 37.0909V35.7102C165.167 32.642 163.249 30.0724 159.619 30.0724C156.077 30.0724 154.096 32.6676 154.083 35.7102V37.0909ZM140.775 22.108C140.788 25.1506 142.718 27.7202 146.323 27.7202C149.89 27.7202 151.859 25.1761 151.846 22.108V20.7273C151.859 17.6591 149.941 15.0895 146.323 15.0895C142.795 15.0895 140.788 17.6591 140.775 20.7273V22.108ZM141.925 42H145.134L163.134 15.8182H159.925L141.925 42ZM157.42 35.7102C157.433 34.3551 158.008 32.9872 159.619 32.9872C161.306 32.9872 161.805 34.3551 161.792 35.7102V37.0909C161.805 38.446 161.255 39.7884 159.619 39.7884C157.982 39.7884 157.433 38.4332 157.42 37.0909V35.7102ZM144.137 20.7273C144.15 19.3849 144.7 18.0043 146.323 18.0043C148.011 18.0043 148.496 19.3722 148.484 20.7273V22.108C148.496 23.4631 147.96 24.8054 146.323 24.8054C144.687 24.8054 144.15 23.4631 144.137 22.108V20.7273Z" fill="white"/>
<path d="M26.5881 42.2102H29.6222V38H40.7443V42.1932H43.7784V35.4176H41.8352V20.5455H30.679L30.2188 27.9261C29.9375 32.6307 28.9403 34.4801 27.7557 35.4176H26.5881V42.2102ZM31.4375 35.4176C32.3665 33.892 33.0398 31.4972 33.2528 27.9261L33.5256 23.196H38.8011V35.4176H31.4375ZM51.9283 38.2557C55.7635 38.2557 58.201 35.554 58.201 31.5057C58.201 27.4489 55.7635 24.7386 51.9283 24.7386C48.093 24.7386 45.6555 27.4489 45.6555 31.5057C45.6555 35.554 48.093 38.2557 51.9283 38.2557ZM51.9453 35.7841C49.8232 35.7841 48.7834 33.892 48.7834 31.4972C48.7834 29.1023 49.8232 27.1847 51.9453 27.1847C54.0334 27.1847 55.0732 29.1023 55.0732 31.4972C55.0732 33.892 54.0334 35.7841 51.9453 35.7841Z" fill="white"/>
</svg>
