<svg width="194" height="58" viewBox="0 0 194 58" fill="none" xmlns="http://www.w3.org/2000/svg">
<rect y="3" width="194" height="52" fill="#E1A661"/>
<path d="M87.2798 27.0043H75.4929V30.8139H87.2798V27.0043ZM101.684 42.358C107.335 42.3963 111.132 38.5099 111.119 33.3324C111.132 28.3849 107.603 24.8054 103.014 24.8054C100.201 24.8054 97.7212 26.1733 96.4684 28.4233H96.2894C96.3022 22.9134 98.3221 19.5639 101.953 19.5639C104.203 19.5639 105.724 20.8679 106.21 22.875H110.876C110.314 18.6435 106.9 15.4602 101.953 15.4602C95.663 15.4602 91.6871 20.7017 91.6871 29.6506C91.6744 39.2514 96.6602 42.3324 101.684 42.358ZM101.659 38.5227C98.859 38.5227 96.8136 36.2088 96.8008 33.473C96.8263 30.7244 98.9485 28.4233 101.723 28.4233C104.497 28.4233 106.529 30.6222 106.517 33.4347C106.529 36.2983 104.433 38.5227 101.659 38.5227ZM125.118 42.4986C131.433 42.5114 135.204 37.5256 135.204 28.9347C135.204 20.3949 131.407 15.4602 125.118 15.4602C118.828 15.4602 115.044 20.3821 115.031 28.9347C115.031 37.5128 118.802 42.4986 125.118 42.4986ZM125.118 38.4972C121.858 38.4972 119.812 35.2244 119.825 28.9347C119.838 22.696 121.87 19.4105 125.118 19.4105C128.377 19.4105 130.41 22.696 130.423 28.9347C130.423 35.2244 128.39 38.4972 125.118 38.4972ZM153.45 37.0909C153.463 40.1335 155.393 42.7287 158.986 42.7287C162.565 42.7287 164.534 40.1335 164.521 37.0909V35.7102C164.534 32.642 162.616 30.0724 158.986 30.0724C155.445 30.0724 153.463 32.6676 153.45 35.7102V37.0909ZM140.142 22.108C140.155 25.1506 142.085 27.7202 145.69 27.7202C149.257 27.7202 151.226 25.1761 151.213 22.108V20.7273C151.226 17.6591 149.308 15.0895 145.69 15.0895C142.162 15.0895 140.155 17.6591 140.142 20.7273V22.108ZM141.293 42H144.501L162.501 15.8182H159.293L141.293 42ZM156.787 35.7102C156.8 34.3551 157.375 32.9872 158.986 32.9872C160.673 32.9872 161.172 34.3551 161.159 35.7102V37.0909C161.172 38.446 160.622 39.7884 158.986 39.7884C157.349 39.7884 156.8 38.4332 156.787 37.0909V35.7102ZM143.504 20.7273C143.517 19.3849 144.067 18.0043 145.69 18.0043C147.378 18.0043 147.864 19.3722 147.851 20.7273V22.108C147.864 23.4631 147.327 24.8054 145.69 24.8054C144.054 24.8054 143.517 23.4631 143.504 22.108V20.7273Z" fill="white"/>
<path d="M26.5881 42.2102H29.6222V38H40.7443V42.1932H43.7784V35.4176H41.8352V20.5455H30.679L30.2188 27.9261C29.9375 32.6307 28.9403 34.4801 27.7557 35.4176H26.5881V42.2102ZM31.4375 35.4176C32.3665 33.892 33.0398 31.4972 33.2528 27.9261L33.5256 23.196H38.8011V35.4176H31.4375ZM51.9283 38.2557C55.7635 38.2557 58.201 35.554 58.201 31.5057C58.201 27.4489 55.7635 24.7386 51.9283 24.7386C48.093 24.7386 45.6555 27.4489 45.6555 31.5057C45.6555 35.554 48.093 38.2557 51.9283 38.2557ZM51.9453 35.7841C49.8232 35.7841 48.7834 33.892 48.7834 31.4972C48.7834 29.1023 49.8232 27.1847 51.9453 27.1847C54.0334 27.1847 55.0732 29.1023 55.0732 31.4972C55.0732 33.892 54.0334 35.7841 51.9453 35.7841Z" fill="white"/>
</svg>
