<svg width="194" height="58" viewBox="0 0 194 58" fill="none" xmlns="http://www.w3.org/2000/svg">
<rect y="3" width="194" height="52" fill="#43807F"/>
<path d="M87.2798 27.0043H75.4929V30.8139H87.2798V27.0043ZM101.199 42.358C106.734 42.358 110.595 38.5994 110.595 33.3963C110.595 28.3594 107.092 24.7287 102.336 24.7287C100.214 24.7287 98.3349 25.5724 97.3633 26.723H97.2099L97.9641 19.7812H109.227V15.8182H94.0394L92.6715 29.3182L96.9542 30.0213C97.8363 29.0497 99.4982 28.3977 101.071 28.4105C103.947 28.4233 106.018 30.5455 106.005 33.5114C106.018 36.4389 103.998 38.5227 101.199 38.5227C98.8335 38.5227 96.9286 37.027 96.7624 34.8793H92.1602C92.288 39.2259 96.0849 42.358 101.199 42.358ZM124.555 42.4986C130.87 42.5114 134.642 37.5256 134.642 28.9347C134.642 20.3949 130.845 15.4602 124.555 15.4602C118.265 15.4602 114.481 20.3821 114.468 28.9347C114.468 37.5128 118.24 42.4986 124.555 42.4986ZM124.555 38.4972C121.295 38.4972 119.25 35.2244 119.262 28.9347C119.275 22.696 121.308 19.4105 124.555 19.4105C127.815 19.4105 129.848 22.696 129.86 28.9347C129.86 35.2244 127.828 38.4972 124.555 38.4972ZM152.888 37.0909C152.901 40.1335 154.831 42.7287 158.423 42.7287C162.003 42.7287 163.972 40.1335 163.959 37.0909V35.7102C163.972 32.642 162.054 30.0724 158.423 30.0724C154.882 30.0724 152.901 32.6676 152.888 35.7102V37.0909ZM139.58 22.108C139.592 25.1506 141.523 27.7202 145.128 27.7202C148.695 27.7202 150.663 25.1761 150.651 22.108V20.7273C150.663 17.6591 148.746 15.0895 145.128 15.0895C141.599 15.0895 139.592 17.6591 139.58 20.7273V22.108ZM140.73 42H143.939L161.939 15.8182H158.73L140.73 42ZM156.224 35.7102C156.237 34.3551 156.812 32.9872 158.423 32.9872C160.111 32.9872 160.609 34.3551 160.597 35.7102V37.0909C160.609 38.446 160.06 39.7884 158.423 39.7884C156.787 39.7884 156.237 38.4332 156.224 37.0909V35.7102ZM142.942 20.7273C142.955 19.3849 143.504 18.0043 145.128 18.0043C146.815 18.0043 147.301 19.3722 147.288 20.7273V22.108C147.301 23.4631 146.764 24.8054 145.128 24.8054C143.491 24.8054 142.955 23.4631 142.942 22.108V20.7273Z" fill="white"/>
<path d="M26.5881 42.2102H29.6222V38H40.7443V42.1932H43.7784V35.4176H41.8352V20.5455H30.679L30.2188 27.9261C29.9375 32.6307 28.9403 34.4801 27.7557 35.4176H26.5881V42.2102ZM31.4375 35.4176C32.3665 33.892 33.0398 31.4972 33.2528 27.9261L33.5256 23.196H38.8011V35.4176H31.4375ZM51.9283 38.2557C55.7635 38.2557 58.201 35.554 58.201 31.5057C58.201 27.4489 55.7635 24.7386 51.9283 24.7386C48.093 24.7386 45.6555 27.4489 45.6555 31.5057C45.6555 35.554 48.093 38.2557 51.9283 38.2557ZM51.9453 35.7841C49.8232 35.7841 48.7834 33.892 48.7834 31.4972C48.7834 29.1023 49.8232 27.1847 51.9453 27.1847C54.0334 27.1847 55.0732 29.1023 55.0732 31.4972C55.0732 33.892 54.0334 35.7841 51.9453 35.7841Z" fill="white"/>
</svg>
