<svg width="50" height="21" viewBox="0 0 50 21" fill="none" xmlns="http://www.w3.org/2000/svg">
<rect width="50" height="21" rx="10.5" fill="#E24B33"/>
<path d="M13.1058 9.67258V10.8729H8.91406V9.67258H13.1058ZM14.7285 13.1534V11.9993L18.8141 5.54545H19.7235V7.24432H19.1465L16.2243 11.87V11.9439H21.824V13.1534H14.7285ZM19.2111 15V12.8026L19.2203 12.2763V5.54545H20.573V15H19.2111ZM26.5536 15.1293C25.975 15.1293 25.4549 15.0185 24.9933 14.7969C24.5347 14.5722 24.1684 14.2644 23.8945 13.8736C23.6206 13.4827 23.4744 13.0365 23.456 12.5348H24.8409C24.8748 12.9411 25.0548 13.275 25.381 13.5366C25.7073 13.7982 26.0981 13.929 26.5536 13.929C26.9168 13.929 27.2384 13.8459 27.5185 13.6797C27.8016 13.5104 28.0232 13.2781 28.1832 12.9826C28.3464 12.6871 28.4279 12.3501 28.4279 11.9716C28.4279 11.5869 28.3448 11.2437 28.1786 10.9421C28.0124 10.6405 27.7831 10.4035 27.4908 10.2312C27.2015 10.0588 26.8691 9.97112 26.4936 9.96804C26.2074 9.96804 25.9196 10.0173 25.6303 10.1158C25.341 10.2143 25.1071 10.3435 24.9286 10.5036L23.6222 10.3097L24.1531 5.54545H29.3512V6.76882H25.3395L25.0394 9.41406H25.0948C25.2795 9.23556 25.5241 9.08629 25.8288 8.96626C26.1366 8.84624 26.4659 8.78622 26.8168 8.78622C27.3923 8.78622 27.9047 8.92318 28.354 9.19709C28.8065 9.471 29.1619 9.84493 29.4205 10.3189C29.6821 10.7898 29.8113 11.3314 29.8082 11.9439C29.8113 12.5563 29.6728 13.1026 29.3928 13.5827C29.1158 14.0629 28.7311 14.4414 28.2386 14.7184C27.7493 14.9923 27.1876 15.1293 26.5536 15.1293ZM36.4294 13.2273V12.7287C36.4294 12.3717 36.5033 12.0455 36.651 11.75C36.8018 11.4515 37.0203 11.2129 37.3066 11.0344C37.5959 10.8529 37.9452 10.7621 38.3545 10.7621C38.7731 10.7621 39.1239 10.8513 39.407 11.0298C39.6902 11.2083 39.9041 11.4469 40.0487 11.7454C40.1965 12.0439 40.2703 12.3717 40.2703 12.7287V13.2273C40.2703 13.5843 40.1965 13.9121 40.0487 14.2106C39.901 14.506 39.684 14.7446 39.3978 14.9261C39.1147 15.1046 38.7669 15.1939 38.3545 15.1939C37.939 15.1939 37.5882 15.1046 37.3019 14.9261C37.0157 14.7446 36.7987 14.506 36.651 14.2106C36.5033 13.9121 36.4294 13.5843 36.4294 13.2273ZM37.5051 12.7287V13.2273C37.5051 13.492 37.5682 13.732 37.6943 13.9474C37.8205 14.1629 38.0406 14.2706 38.3545 14.2706C38.6653 14.2706 38.8823 14.1629 39.0054 13.9474C39.1285 13.732 39.1901 13.492 39.1901 13.2273V12.7287C39.1901 12.464 39.1301 12.224 39.01 12.0085C38.8931 11.7931 38.6746 11.6854 38.3545 11.6854C38.0467 11.6854 37.8282 11.7931 37.699 12.0085C37.5697 12.224 37.5051 12.464 37.5051 12.7287ZM31.6744 7.81676V7.31818C31.6744 6.96117 31.7483 6.6334 31.896 6.33487C32.0468 6.03634 32.2654 5.79782 32.5516 5.61932C32.8409 5.44081 33.1902 5.35156 33.5995 5.35156C34.0181 5.35156 34.3689 5.44081 34.6521 5.61932C34.9352 5.79782 35.1491 6.03634 35.2938 6.33487C35.4384 6.6334 35.5107 6.96117 35.5107 7.31818V7.81676C35.5107 8.17377 35.4369 8.50154 35.2892 8.80007C35.1445 9.09553 34.9291 9.33404 34.6428 9.51562C34.3597 9.69413 34.0119 9.78338 33.5995 9.78338C33.181 9.78338 32.8286 9.69413 32.5423 9.51562C32.2592 9.33404 32.0438 9.09553 31.896 8.80007C31.7483 8.50154 31.6744 8.17377 31.6744 7.81676ZM32.7547 7.31818V7.81676C32.7547 8.08144 32.8163 8.3215 32.9394 8.53693C33.0655 8.75237 33.2856 8.86008 33.5995 8.86008C33.9073 8.86008 34.1227 8.75237 34.2458 8.53693C34.372 8.3215 34.4351 8.08144 34.4351 7.81676V7.31818C34.4351 7.0535 34.3751 6.81345 34.2551 6.59801C34.135 6.38258 33.9165 6.27486 33.5995 6.27486C33.2918 6.27486 33.0732 6.38258 32.944 6.59801C32.8178 6.81345 32.7547 7.0535 32.7547 7.31818ZM32.113 15L38.613 5.54545H39.7164L33.2164 15H32.113Z" fill="white"/>
</svg>
