<svg width="50" height="21" viewBox="0 0 50 21" fill="none" xmlns="http://www.w3.org/2000/svg">
<rect width="50" height="21" rx="10.5" fill="#5B8A8F"/>
<path d="M18.1953 8.02912C18.1461 7.59209 17.9429 7.25355 17.5859 7.01349C17.2289 6.77036 16.7796 6.64879 16.2379 6.64879C15.8501 6.64879 15.5147 6.71035 15.2315 6.83345C14.9484 6.95348 14.7283 7.11967 14.5714 7.33203C14.4175 7.54131 14.3406 7.77983 14.3406 8.04759C14.3406 8.27225 14.3929 8.46615 14.4975 8.62926C14.6052 8.79238 14.7453 8.92933 14.9176 9.04013C15.093 9.14785 15.2808 9.23864 15.4808 9.3125C15.6809 9.38329 15.8732 9.44176 16.0579 9.48793L16.9812 9.72798C17.2828 9.80185 17.5921 9.90187 17.9091 10.0281C18.2261 10.1542 18.52 10.3204 18.7908 10.5266C19.0617 10.7328 19.2802 10.9883 19.4464 11.293C19.6156 11.5977 19.7003 11.9624 19.7003 12.3871C19.7003 12.9226 19.5618 13.3981 19.2848 13.8136C19.0109 14.229 18.6123 14.5568 18.0891 14.7969C17.569 15.0369 16.9396 15.157 16.201 15.157C15.4931 15.157 14.8807 15.0446 14.3636 14.82C13.8466 14.5953 13.4419 14.2768 13.1495 13.8643C12.8571 13.4489 12.6955 12.9564 12.6648 12.3871H14.0959C14.1236 12.7287 14.2344 13.0134 14.4283 13.2411C14.6252 13.4658 14.8761 13.6335 15.1808 13.7443C15.4885 13.852 15.8255 13.9059 16.1918 13.9059C16.5949 13.9059 16.9535 13.8428 17.2674 13.7166C17.5844 13.5874 17.8337 13.4089 18.0153 13.1811C18.1969 12.9503 18.2876 12.681 18.2876 12.3732C18.2876 12.0932 18.2076 11.8639 18.0476 11.6854C17.8906 11.5069 17.6767 11.3591 17.4059 11.2422C17.1381 11.1252 16.835 11.0221 16.4964 10.9329L15.3793 10.6282C14.6222 10.422 14.022 10.1188 13.5788 9.71875C13.1387 9.31866 12.9187 8.7893 12.9187 8.13068C12.9187 7.58594 13.0664 7.11044 13.3619 6.70419C13.6573 6.29794 14.0574 5.98248 14.5621 5.75781C15.0669 5.53007 15.6362 5.41619 16.2702 5.41619C16.9104 5.41619 17.4751 5.52853 17.9645 5.7532C18.4569 5.97786 18.8447 6.28717 19.1278 6.68111C19.411 7.07197 19.5587 7.52131 19.571 8.02912H18.1953ZM23.3577 15.157C22.9084 15.157 22.5021 15.0739 22.1389 14.9077C21.7758 14.7384 21.488 14.4937 21.2757 14.1737C21.0664 13.8536 20.9617 13.4612 20.9617 12.9964C20.9617 12.5964 21.0387 12.267 21.1926 12.0085C21.3464 11.75 21.5542 11.5453 21.8158 11.3945C22.0774 11.2437 22.3698 11.1299 22.6929 11.0529C23.0161 10.976 23.3454 10.9175 23.6808 10.8775C24.1056 10.8282 24.4503 10.7882 24.7149 10.7575C24.9796 10.7236 25.172 10.6697 25.292 10.5959C25.412 10.522 25.472 10.402 25.472 10.2358V10.2035C25.472 9.80031 25.3582 9.48793 25.1304 9.26633C24.9057 9.04474 24.5703 8.93395 24.124 8.93395C23.6593 8.93395 23.2931 9.03705 23.0253 9.24325C22.7606 9.44638 22.5775 9.67259 22.4759 9.92188L21.1787 9.62642C21.3326 9.19555 21.5573 8.84777 21.8527 8.5831C22.1512 8.31534 22.4944 8.12145 22.8822 8.00142C23.27 7.87831 23.6778 7.81676 24.1056 7.81676C24.3887 7.81676 24.6888 7.85062 25.0058 7.91832C25.3258 7.98295 25.6244 8.10298 25.9014 8.27841C26.1814 8.45383 26.4107 8.70466 26.5892 9.03089C26.7677 9.35405 26.857 9.77415 26.857 10.2912V15H25.509V14.0305H25.4536C25.3643 14.209 25.2304 14.3845 25.0519 14.5568C24.8734 14.7292 24.6441 14.8723 24.3641 14.9862C24.084 15.1 23.7485 15.157 23.3577 15.157ZM23.6578 14.049C24.0394 14.049 24.3656 13.9736 24.6365 13.8228C24.9104 13.672 25.1181 13.475 25.2597 13.2319C25.4043 12.9857 25.4767 12.7225 25.4767 12.4425V11.5284C25.4274 11.5777 25.332 11.6238 25.1904 11.6669C25.0519 11.7069 24.8934 11.7423 24.7149 11.7731C24.5364 11.8008 24.3625 11.8269 24.1933 11.8516C24.024 11.8731 23.8824 11.8916 23.7686 11.907C23.5008 11.9408 23.2561 11.9978 23.0345 12.0778C22.816 12.1578 22.6406 12.2732 22.5083 12.424C22.379 12.5717 22.3144 12.7687 22.3144 13.0149C22.3144 13.3565 22.4405 13.6151 22.6929 13.7905C22.9453 13.9628 23.2669 14.049 23.6578 14.049ZM30.0758 5.54545V15H28.6955V5.54545H30.0758ZM34.9889 15.1431C34.2903 15.1431 33.6886 14.9938 33.1839 14.6953C32.6822 14.3937 32.2944 13.9705 32.0205 13.4258C31.7497 12.878 31.6143 12.2363 31.6143 11.5007C31.6143 10.7744 31.7497 10.1342 32.0205 9.58026C32.2944 9.02628 32.676 8.59387 33.1654 8.28303C33.6578 7.97218 34.2333 7.81676 34.892 7.81676C35.2921 7.81676 35.6798 7.88293 36.0553 8.01527C36.4308 8.14761 36.7678 8.35535 37.0663 8.63849C37.3648 8.92164 37.6003 9.28942 37.7726 9.74183C37.945 10.1912 38.0312 10.7375 38.0312 11.3807V11.87H32.3944V10.8359H36.6785C36.6785 10.4728 36.6047 10.1512 36.4569 9.87109C36.3092 9.58795 36.1015 9.36482 35.8337 9.2017C35.569 9.03859 35.2582 8.95703 34.9012 8.95703C34.5134 8.95703 34.1749 9.05244 33.8856 9.24325C33.5993 9.43099 33.3778 9.6772 33.2208 9.98189C33.0669 10.2835 32.99 10.6113 32.99 10.9652V11.7731C32.99 12.247 33.0731 12.6502 33.2393 12.9826C33.4085 13.315 33.644 13.5689 33.9456 13.7443C34.2472 13.9167 34.5996 14.0028 35.0028 14.0028C35.2644 14.0028 35.5029 13.9659 35.7183 13.892C35.9337 13.8151 36.1199 13.7012 36.2769 13.5504C36.4339 13.3996 36.5539 13.2134 36.637 12.9918L37.9434 13.2273C37.8388 13.612 37.6511 13.949 37.3802 14.2383C37.1125 14.5245 36.7755 14.7476 36.3692 14.9077C35.9661 15.0646 35.5059 15.1431 34.9889 15.1431Z" fill="white"/>
</svg>
