<svg width="224" height="64" viewBox="0 0 224 64" fill="none" xmlns="http://www.w3.org/2000/svg">
<rect width="224" height="64" fill="#F5F5F5"/>
<rect x="14.5" y="12.5" width="51" height="39" fill="white" stroke="#D0D0D0"/>
<path d="M37.0526 20.3636H34.7401L31.8594 22.1875V24.3693L34.5241 22.6989H34.5923V32H37.0526V20.3636ZM39.8182 32H48.1136V29.9886H43.2273V29.9091L44.9261 28.2443C47.3182 26.0625 47.9602 24.9716 47.9602 23.6477C47.9602 21.6307 46.3125 20.2045 43.8182 20.2045C41.375 20.2045 39.6989 21.6648 39.7045 23.9489H42.0398C42.0341 22.8352 42.7386 22.1534 43.8011 22.1534C44.8239 22.1534 45.5852 22.7898 45.5852 23.8125C45.5852 24.7386 45.017 25.375 43.9602 26.392L39.8182 30.2273V32Z" fill="#303030"/>
<path d="M29.7676 40H29.0684V43.1172C28.5645 43.2734 28.0645 43.3711 27.498 43.3711C26.6113 43.3711 26.0371 42.9375 26.0371 41.9375V39.9805H25.3418V41.9375C25.3418 43.3477 26.1582 44.0234 27.5059 44.0273C28.0762 44.0273 28.5449 43.9414 29.0684 43.7773V46H29.7676V40ZM33.291 46.1367C34.291 46.1367 34.9004 45.582 35.1504 45.0508H35.1934V46H35.8887V41.9258C35.8887 40.3164 34.6777 39.918 33.7598 39.918C32.8418 39.918 31.8965 40.2812 31.4902 41.2617L32.1504 41.5C32.3691 40.9844 32.9121 40.543 33.7793 40.543C34.6895 40.543 35.1934 41.043 35.1934 41.8633V42.0039C35.1934 42.457 34.6309 42.4648 33.623 42.5898C32.2676 42.7578 31.3184 43.1367 31.3184 44.3242C31.3184 45.4805 32.2012 46.1367 33.291 46.1367ZM33.3848 45.5C32.5996 45.5 32.0137 45.082 32.0137 44.3555C32.0137 43.6289 32.6074 43.3242 33.623 43.1992C34.1152 43.1406 34.9902 43.0312 35.1934 42.832V43.6992C35.1934 44.6836 34.4941 45.5 33.3848 45.5ZM40.082 46.125C41.332 46.125 42.2109 45.3359 42.3711 44.25H41.668C41.5078 45.0156 40.8789 45.4883 40.082 45.4883C38.9063 45.4883 38.1289 44.4648 38.1289 43.0039C38.1289 41.5508 38.9297 40.5508 40.082 40.5508C40.9375 40.5508 41.5156 41.1016 41.6641 41.7812H42.3672C42.2031 40.668 41.2734 39.918 40.0703 39.918C38.5 39.918 37.4297 41.2227 37.4297 43.0273C37.4297 44.8164 38.4687 46.125 40.082 46.125ZM46.1934 46.125C47.748 46.125 48.834 44.8555 48.834 43.0273C48.834 41.1875 47.748 39.918 46.1934 39.918C44.6387 39.918 43.5527 41.1875 43.5527 43.0273C43.5527 44.8555 44.6387 46.125 46.1934 46.125ZM46.1934 45.4883C44.9473 45.4883 44.252 44.3711 44.252 43.0273C44.252 41.6836 44.9473 40.5508 46.1934 40.5508C47.4395 40.5508 48.1348 41.6836 48.1348 43.0273C48.1348 44.3711 47.4395 45.4883 46.1934 45.4883ZM50.3604 46H53.0674C54.2314 46 54.9697 45.3125 54.9697 44.375C54.9697 43.4883 54.3408 42.9609 53.6494 42.8398C54.3369 42.6641 54.7861 42.2461 54.7861 41.5312C54.7861 40.5977 54.001 40 52.7236 40H50.3604V46ZM51.0244 45.3555V43.207H53.1455C53.8213 43.207 54.2588 43.6445 54.2588 44.3164C54.2588 44.9492 53.7979 45.3555 53.0674 45.3555H51.0244ZM51.0244 42.5898V40.6445H52.7236C53.583 40.6445 54.0869 40.9883 54.0869 41.5742C54.0908 42.1953 53.5752 42.5898 52.7666 42.5898H51.0244Z" fill="#303030"/>
<rect x="86.5" y="12.5" width="51" height="39" fill="white" stroke="#D0D0D0"/>
<path d="M102.064 29.9545H107.649V32H110.001V29.9545H111.445V27.983H110.001V20.3636H106.922L102.064 28.017V29.9545ZM107.695 27.983H104.541V27.892L107.604 23.0455H107.695V27.983ZM117.55 32.1591C120.141 32.1705 121.908 30.4716 121.902 28.1023C121.908 25.9205 120.385 24.3466 118.322 24.3466C117.044 24.3466 115.913 24.9602 115.391 25.9886H115.311C115.322 23.7216 116.118 22.3125 117.635 22.3125C118.527 22.3125 119.169 22.8011 119.357 23.6136H121.783C121.55 21.6989 119.959 20.2045 117.635 20.2045C114.76 20.2045 112.913 22.5341 112.902 26.4432C112.896 30.7045 115.158 32.1477 117.55 32.1591ZM117.538 30.2273C116.402 30.2273 115.561 29.3125 115.561 28.1761C115.567 27.0455 116.425 26.125 117.555 26.125C118.692 26.125 119.521 27.017 119.516 28.1705C119.521 29.3352 118.675 30.2273 117.538 30.2273Z" fill="#303030"/>
<path d="M100.232 45.0273L97.9976 40H97.0952V46H97.7905V41.0469L99.9546 46H100.509L102.673 41.1055V46H103.369V40H102.486L100.232 45.0273ZM105.912 45.0117V40H105.216V46H106.06L109.216 40.9883V46H109.912V40H109.08L105.912 45.0117ZM112.443 40H111.748V46H112.443V43.332H115.615V46H116.31V40H115.615V42.6758H112.443V40ZM118.43 48.25C119.18 48.25 119.731 47.8203 120.051 46.9492L122.594 40.0117L121.836 40L120.055 45.082H120L118.219 40H117.465L119.672 46.0586L119.454 46.668C119.122 47.5742 118.653 47.7344 117.946 47.5117L117.758 48.125C117.899 48.1914 118.157 48.25 118.43 48.25ZM123.583 40.6562H125.591V46H126.287V40.6562H128.271V40H123.583V40.6562Z" fill="#303030"/>
<rect x="158.5" y="12.5" width="51" height="39" fill="white" stroke="#D0D0D0"/>
<path d="M179.623 32.1591C182.214 32.1591 183.975 30.4716 183.969 28.1193C183.975 25.892 182.418 24.2898 180.322 24.2898C179.299 24.2898 178.418 24.7159 178.009 25.2898H177.941L178.242 22.375H183.327V20.3636H176.214L175.663 26.5L177.85 26.892C178.208 26.4091 178.901 26.108 179.589 26.108C180.759 26.1136 181.6 26.9602 181.6 28.1818C181.6 29.392 180.776 30.2273 179.623 30.2273C178.646 30.2273 177.856 29.6136 177.799 28.7102H175.413C175.458 30.7216 177.214 32.1591 179.623 32.1591ZM190.748 20.3636H188.435L185.555 22.1875V24.3693L188.219 22.6989H188.288V32H190.748V20.3636Z" fill="#303030"/>
<path d="M168.613 46.125C169.863 46.125 170.742 45.3359 170.902 44.25H170.199C170.039 45.0156 169.41 45.4883 168.613 45.4883C167.438 45.4883 166.66 44.4648 166.66 43.0039C166.66 41.5508 167.461 40.5508 168.613 40.5508C169.469 40.5508 170.047 41.1016 170.195 41.7812H170.898C170.734 40.668 169.805 39.918 168.602 39.918C167.031 39.918 165.961 41.2227 165.961 43.0273C165.961 44.8164 167 46.125 168.613 46.125ZM174.818 46.125C176.021 46.125 176.83 45.4727 177.104 44.7187L176.443 44.5039C176.213 45.043 175.67 45.4883 174.818 45.4883C173.592 45.4883 172.814 44.5938 172.783 43.207H177.252V42.8633C177.252 40.8594 176.014 39.918 174.713 39.918C173.158 39.918 172.084 41.2187 172.084 43.0352C172.084 44.8555 173.139 46.125 174.818 46.125ZM172.787 42.5937C172.861 41.4766 173.615 40.5508 174.713 40.5508C175.787 40.5508 176.541 41.4375 176.541 42.5937H172.787ZM178.784 46H179.479V43.3555H180.347L182.417 46H183.315L180.854 42.8867L183.261 40H182.362L180.132 42.6992H179.479V40H178.784V46ZM184.94 48.25C185.69 48.25 186.241 47.8203 186.562 46.9492L189.104 40.0117L188.347 40L186.565 45.082H186.511L184.729 40H183.976L186.183 46.0586L185.964 46.668C185.632 47.5742 185.163 47.7344 184.456 47.5117L184.269 48.125C184.409 48.1914 184.667 48.25 184.94 48.25ZM191.156 40H190.461V46H191.156V43.332H194.328V46H195.023V40H194.328V42.6758H191.156V40ZM196.163 47.707H196.862V46H201.546V47.707H202.241V45.3437H201.351V40H197.8L197.581 42.5117C197.444 44.0664 197.194 44.7617 196.683 45.3437H196.163V47.707ZM197.483 45.3437C197.948 44.707 198.144 43.7695 198.269 42.5117L198.448 40.6562H200.655V45.3437H197.483Z" fill="#303030"/>
<circle cx="76" cy="29" r="1" fill="#303030"/>
<circle cx="76" cy="35" r="1" fill="#303030"/>
<circle cx="148" cy="29" r="1" fill="#303030"/>
<circle cx="148" cy="35" r="1" fill="#303030"/>
</svg>
