<svg width="50" height="21" viewBox="0 0 50 21" fill="none" xmlns="http://www.w3.org/2000/svg">
<rect width="50" height="21" rx="10.5" fill="#E24B33"/>
<path d="M13.1058 9.6772H8.91406V10.8729H13.1058V9.6772ZM14.7285 13.1534H19.2111V15H20.573V13.1534H21.824V11.9439H20.573V5.54545H18.8141L14.7285 11.9993V13.1534ZM19.2203 11.9439H16.2243V11.87L19.1465 7.24432H19.2203V11.9439ZM26.5536 15.1293C28.4556 15.1293 29.8129 13.7859 29.8082 11.9439C29.8129 10.1158 28.5387 8.78622 26.8168 8.78622C26.1151 8.78622 25.4641 9.05398 25.0948 9.41406H25.0394L25.3395 6.76882H29.3512V5.54545H24.1531L23.6222 10.3097L24.9286 10.5036C25.2841 10.185 25.9212 9.96804 26.4936 9.96804C27.6154 9.97727 28.4279 10.8175 28.4279 11.9716C28.4279 13.1072 27.6385 13.929 26.5536 13.929C25.6396 13.929 24.9148 13.3473 24.8409 12.5348H23.456C23.5114 14.0398 24.8178 15.1293 26.5536 15.1293ZM36.4294 13.2273C36.434 14.2937 37.1034 15.1939 38.3545 15.1939C39.5917 15.1939 40.2703 14.2937 40.2703 13.2273V12.7287C40.2703 11.6577 39.6102 10.7621 38.3545 10.7621C37.1219 10.7621 36.434 11.6623 36.4294 12.7287V13.2273ZM31.6744 7.81676C31.6744 8.88317 32.3485 9.78338 33.5995 9.78338C34.8321 9.78338 35.5154 8.88778 35.5107 7.81676V7.31818C35.5154 6.24716 34.8506 5.35156 33.5995 5.35156C32.3715 5.35156 31.6744 6.24716 31.6744 7.31818V7.81676ZM32.0622 15H33.1656L39.6656 5.54545H38.5622L32.0622 15ZM37.5051 12.7287C37.5097 12.1978 37.7405 11.6854 38.3545 11.6854C38.9916 11.6854 39.1901 12.1978 39.1901 12.7287V13.2273C39.1901 13.7582 38.9731 14.2706 38.3545 14.2706C37.7267 14.2706 37.5097 13.7536 37.5051 13.2273V12.7287ZM32.7547 7.31818C32.7547 6.7919 32.9855 6.27486 33.5995 6.27486C34.2366 6.27486 34.4351 6.78729 34.4351 7.31818V7.81676C34.4351 8.34766 34.2181 8.86008 33.5995 8.86008C32.9717 8.86008 32.7547 8.34766 32.7547 7.81676V7.31818Z" fill="white"/>
</svg>
