<svg width="50" height="21" viewBox="0 0 50 21" fill="none" xmlns="http://www.w3.org/2000/svg">
<rect width="50" height="21" rx="10.5" fill="#495159"/>
<path d="M18.6697 5.54545V15H17.3587L12.5529 8.06605H12.4652V15H11.0387V5.54545H12.359L17.1694 12.4886H17.2571V5.54545H18.6697ZM23.6959 15.1431C22.9973 15.1431 22.3956 14.9938 21.8909 14.6953C21.3892 14.3937 21.0015 13.9705 20.7275 13.4258C20.4567 12.878 20.3213 12.2363 20.3213 11.5007C20.3213 10.7744 20.4567 10.1342 20.7275 9.58026C21.0015 9.02628 21.3831 8.59387 21.8724 8.28303C22.3648 7.97218 22.9404 7.81676 23.599 7.81676C23.9991 7.81676 24.3869 7.88293 24.7623 8.01527C25.1378 8.14761 25.4748 8.35535 25.7733 8.63849C26.0719 8.92164 26.3073 9.28942 26.4797 9.74183C26.652 10.1912 26.7382 10.7375 26.7382 11.3807V11.87H21.1015V10.8359H25.3856C25.3856 10.4728 25.3117 10.1512 25.164 9.87109C25.0162 9.58795 24.8085 9.36482 24.5407 9.2017C24.2761 9.03859 23.9652 8.95703 23.6082 8.95703C23.2204 8.95703 22.8819 9.05244 22.5926 9.24325C22.3064 9.43099 22.0848 9.6772 21.9278 9.98189C21.7739 10.2835 21.697 10.6113 21.697 10.9652V11.7731C21.697 12.247 21.7801 12.6502 21.9463 12.9826C22.1156 13.315 22.351 13.5689 22.6526 13.7443C22.9542 13.9167 23.3066 14.0028 23.7098 14.0028C23.9714 14.0028 24.2099 13.9659 24.4253 13.892C24.6408 13.8151 24.827 13.7012 24.9839 13.5504C25.1409 13.3996 25.2609 13.2134 25.344 12.9918L26.6505 13.2273C26.5458 13.612 26.3581 13.949 26.0873 14.2383C25.8195 14.5245 25.4825 14.7476 25.0763 14.9077C24.6731 15.0646 24.213 15.1431 23.6959 15.1431ZM29.7943 15L27.7077 7.90909H29.1341L30.5237 13.1165H30.593L31.9871 7.90909H33.4136L34.7986 13.0934H34.8678L36.2481 7.90909H37.6746L35.5926 15H34.1846L32.7442 9.88033H32.6381L31.1977 15H29.7943Z" fill="white"/>
</svg>
